<svg xmlns="http://www.w3.org/2000/svg" viewBox="0 0 1024 1024">
  <defs>
    <linearGradient id="bg" x1="0" y1="0" x2="0" y2="1"><stop offset="0" stop-color="#121A28"/><stop offset="1" stop-color="#070A10"/></linearGradient>
    <linearGradient id="bar" x1="0" y1="0" x2="1" y2="1"><stop offset="0" stop-color="#00F2FE"/><stop offset="1" stop-color="#4FACFE"/></linearGradient>
    <linearGradient id="ring" x1="0" y1="0" x2="1" y2="1"><stop offset="0" stop-color="#00F2FE" stop-opacity=".75"/><stop offset=".5" stop-color="#00F2FE" stop-opacity=".08"/><stop offset="1" stop-color="#00F2FE" stop-opacity=".45"/></linearGradient>
    <filter id="glow" x="-30%" y="-30%" width="160%" height="160%"><feGaussianBlur stdDeviation="34"/></filter>
  </defs>
  <rect width="1024" height="1024" rx="232" fill="url(#bg)"/>
  <rect x="10" y="10" width="1004" height="1004" rx="222" fill="none" stroke="url(#ring)" stroke-width="20"/>
  <g fill="url(#bar)" filter="url(#glow)" opacity="0.5"><rect x="138" y="242" width="76" height="250" rx="38"/><rect x="250" y="242" width="76" height="350" rx="38"/><rect x="362" y="242" width="76" height="450" rx="38"/><rect x="474" y="242" width="76" height="540" rx="38"/><rect x="586" y="242" width="76" height="450" rx="38"/><rect x="698" y="242" width="76" height="350" rx="38"/><rect x="810" y="242" width="76" height="250" rx="38"/></g>
  <g fill="url(#bar)"><rect x="138" y="242" width="76" height="250" rx="38"/><rect x="250" y="242" width="76" height="350" rx="38"/><rect x="362" y="242" width="76" height="450" rx="38"/><rect x="474" y="242" width="76" height="540" rx="38"/><rect x="586" y="242" width="76" height="450" rx="38"/><rect x="698" y="242" width="76" height="350" rx="38"/><rect x="810" y="242" width="76" height="250" rx="38"/></g>
</svg>
